<svg version="1.1" id="Layer_1" xmlns="http://www.w3.org/2000/svg" xmlns:xlink="http://www.w3.org/1999/xlink" x="0px" y="0px" width="16px" height="16px" viewBox="0 0 613 613" enable-background="new 0 0 613 613" xml:space="preserve" fill="currentColor"><path d="M295.48,190.449c-0.15-49.872-13.207-90.424-39.403-135.709c10.948-26.508,45.861-30.348,63.922-29.227	c12.329,60.72,14.692,107.426,9.367,166.068"></path><path d="M600.313,310.44c-1.734-131.894-95.735-218.566-209.827-193.467c-20.319,4.471-39.953,12.105-58.451,22.459	c-0.097,16.747-1.009,33.868-2.669,52.149l-33.886-1.132c-0.05-16.621-1.542-32.204-4.468-47.274	c-20.516-11.736-42.398-20.173-65.017-24.716c-14.341-2.88-28.52-4.45-42.003-3.981l0.002-0.003	c-94.385,3.28-174.083,85.78-172.566,201.19c1.731,131.892,97.488,257.71,212.211,280.747c29.36,5.898,70.919,6.25,90.59-12.596	c19.303,15.879,61.974,17.381,91.173,10.957C519.492,569.672,602.047,442.335,600.313,310.44z M414.681,250.329	c-5.037,49.428-29.76,74.938-81.769,67.294C321.02,275.176,364.542,231.388,414.681,250.329z M311.923,199.562	c37.127,37.214,31.368,72.268-5.326,105.765C261.516,276.346,270.746,215.305,311.923,199.562z M280.383,306.004	c-48.433,20.435-78.762,1.939-96.03-44.647C228.142,230.453,281.252,261.926,280.383,306.004z M161.159,345.604	c30.783-43.873,91.403-32.175,105.463,9.604C227.934,390.799,193.142,383.627,161.159,345.604z M183.902,454.243	c-4.868-53.373,48.944-83.634,86.679-60.842C264.067,445.563,232.882,462.579,183.902,454.243z M297.102,508.721	c-36.694-33.497-42.452-68.551-5.326-105.765C332.953,418.698,342.183,479.739,297.102,508.721z M404.957,453.06	c-48.774,9.468-80.343-6.823-88.064-58.819C354.09,370.579,408.589,399.585,404.957,453.06z M330.976,349.89	c21.572-38.444,83.31-38.681,105.412,10.141C397.903,391.459,362.382,392.045,330.976,349.89z"></path></svg>