<svg version="1.1" id="Layer_1" xmlns="http://www.w3.org/2000/svg" xmlns:xlink="http://www.w3.org/1999/xlink" x="0px" y="0px" width="16px" height="16px" viewBox="0 0 613 613" enable-background="new 0 0 613 613" xml:space="preserve" fill="currentColor"><path d="M511.336,457.409h-84.871l-0.811-1.448c0.3-51.89,20.472-104.981,58.794-146.852	c28.633-31.285,50.255-72.459,61.335-113.362l-49.29-29.809l45.744-8.256l-51.841-30.847l-0.005,0.001l0.002-0.003l0.003,0.002	l62.308-10.58c-6.253-46.776-34.474-81.415-92.482-81.415c-56.61,10.999-217.878,14.357-301.305,3.545	c-10.574-3.443-21.227-5.469-31.618-5.825c-0.077-0.021-0.16-0.041-0.236-0.061c0.044,0.019,0.087,0.039,0.131,0.058	c-27.124-0.899-52.448,9.596-69.865,36.059c-24.193,36.761,1.566,99.859,58.355,99.859c3.208,0,6.138-0.173,8.816-0.498v0.439	h70.918c-10.728,43.227-37.331,91.311-68.141,139.765c-2.585,4.065-5.094,8.214-7.528,12.432l41.699,42.718l-67.257,11.265	c-39.12,102.756-32.772,217.634,57.71,217.634v-0.001l9.359,0.066v0.14h102.471v-0.186h270.045	C615.184,592.25,626.358,457.409,511.336,457.409z M270.748,522.252c-0.002-0.56-0.018-1.13-0.033-1.698	C270.73,521.123,270.746,521.693,270.748,522.252z M268.122,500.828c0.016,0.071,0.028,0.139,0.044,0.21	c-0.016-0.07-0.028-0.138-0.044-0.208c-3.217-14.185-12.439-26.013-24.482-33.628l0.004,0	C255.685,474.817,264.905,486.644,268.122,500.828z M270.645,518.576c-0.028-0.57-0.064-1.146-0.104-1.724	C270.581,517.43,270.617,518.006,270.645,518.576z M270.37,514.753c-0.053-0.57-0.108-1.142-0.172-1.721	C270.262,513.611,270.317,514.183,270.37,514.753z M269.912,510.753c-0.075-0.553-0.145-1.104-0.23-1.665	C269.768,509.649,269.838,510.2,269.912,510.753z M269.246,506.477c-0.086-0.487-0.161-0.967-0.255-1.459	C269.085,505.51,269.16,505.99,269.246,506.477z M141.624,161.553c16.78-14.29-0.686-48.072-20.786-76.172h69.29	c11.581,22.355,12.772,48.167,6.867,76.172H141.624z M195.023,474.191c31.001-10.304,66.13,9.388,73.099,40.116	c1.192,5.257,1.957,10.213,2.341,14.895c0.045-0.489,0.067-0.995,0.102-1.491c-0.773,11.086-4.066,20.315-9.34,27.957h-0.619	c-0.589,0.845-1.199,1.665-1.833,2.456l0.966-0.423c-8.861,11.589-22.472,19.33-38.654,24.326h-16.824l0.819-0.359	c-17.728-0.005-38.08-1.675-38.08-1.675c26.295-0.421,37.631-11.55,41.943-24.303c-18.736,6.81-38.704-5.431-44.985-23.505	C155.481,507.792,171.442,482.029,195.023,474.191z M270.725,524.148c-0.011,0.55-0.016,1.105-0.039,1.646	C270.709,525.252,270.713,524.698,270.725,524.148z M259.818,557.595c0.476-0.625,0.944-1.257,1.393-1.905	C260.763,556.339,260.293,556.97,259.818,557.595z"></path></svg>